<svg xmlns="http://www.w3.org/2000/svg" enable-background="new 0 0 512 512" viewBox="0 0 512 512"><path d="M189.5,207.1c7.2-46.3,30.8-89.3,66.5-120.3c89.5,77.9,90.9,214,7.9,294.1c14,12,28.6,21.6,49,30.7C422.1,293.7,396.8,103.7,258.8,19c-1.7-1.1-3.8-1.1-5.5,0c-76,46.7-119.6,127.4-122.1,210.7C148.8,220.2,168.3,212.5,189.5,207.1z"/><path d="M391.4,248c-0.6,21.8-4.1,41.8-9.9,62.2c36.3,29.3,61.4,70.7,70.5,116.4c-112.1,38.6-230.5-29-258.5-139.7c-16,5.3-35.3,15.4-50.9,27.3c47.4,152.1,223.7,226,366.6,148.6c1.8-1,2.8-2.8,2.8-4.8C510.2,376.2,467.1,295.1,391.4,248z"/><path d="M196.4,424.1c-42.8,16.6-91.4,17.9-136.4,2.5c22.2-112.8,137.7-185.9,250.6-153.4c3.6-16.9,4.7-37,2.3-57.5C154.3,179.8,3.5,298.6,0,458c-0.1,2,1,3.8,2.8,4.8c76.3,41.4,168.3,40.7,242.7,0.8C227.1,452.2,209.8,438.1,196.4,424.1z"/></svg>